<?xml version="1.0" encoding="UTF-8" standalone="no"?>
<svg
   xmlns:dc="http://purl.org/dc/elements/1.1/"
   xmlns:cc="http://creativecommons.org/ns#"
   xmlns:rdf="http://www.w3.org/1999/02/22-rdf-syntax-ns#"
   xmlns:svg="http://www.w3.org/2000/svg"
   xmlns="http://www.w3.org/2000/svg"
   xmlns:sodipodi="http://sodipodi.sourceforge.net/DTD/sodipodi-0.dtd"
   xmlns:inkscape="http://www.inkscape.org/namespaces/inkscape"
   inkscape:version="1.0 (4035a4f, 2020-05-01)"
   sodipodi:docname="grid.svg"
   id="svg875"
   version="1.1"
   viewBox="0 0 256 257"
   preserveAspectRatio="xMidYMid meet"
   height="32"
   width="31.88"
   class="iconify iconify--logos"
   role="img"
   aria-hidden="true">
  <metadata
     id="metadata879">
    <rdf:RDF>
      <cc:Work
         rdf:about="">
        <dc:format>image/svg+xml</dc:format>
        <dc:type
           rdf:resource="http://purl.org/dc/dcmitype/StillImage" />
        <dc:title></dc:title>
      </cc:Work>
    </rdf:RDF>
  </metadata>
  <sodipodi:namedview
     inkscape:current-layer="svg875"
     inkscape:window-maximized="0"
     inkscape:window-y="25"
     inkscape:window-x="0"
     inkscape:cy="15.957771"
     inkscape:cx="15.940019"
     inkscape:zoom="12.517472"
     showgrid="false"
     id="namedview877"
     inkscape:window-height="667"
     inkscape:window-width="1100"
     inkscape:pageshadow="2"
     inkscape:pageopacity="0"
     guidetolerance="10"
     gridtolerance="10"
     objecttolerance="10"
     borderopacity="1"
     bordercolor="#666666"
     pagecolor="#ffffff" />
  <defs
     id="defs869">
    <linearGradient
       y2="78.411%"
       y1="7.652%"
       x2="57.636%"
       x1="-.828%"
       id="IconifyId1813088fe1fbc01fb466">
      <stop
         id="stop857"
         stop-color="#41D1FF"
         offset="0%" />
      <stop
         id="stop859"
         stop-color="#BD34FE"
         offset="100%" />
    </linearGradient>
    <linearGradient
       y2="89.03%"
       y1="2.242%"
       x2="50.316%"
       x1="43.376%"
       id="IconifyId1813088fe1fbc01fb467">
      <stop
         id="stop862"
         stop-color="#FFEA83"
         offset="0%" />
      <stop
         id="stop864"
         stop-color="#FFDD35"
         offset="8.333%" />
      <stop
         id="stop866"
         stop-color="#FFA800"
         offset="100%" />
    </linearGradient>
  </defs>
  <path
     d="m 25.576586,171.67969 c 6.316567,-0.50613 12.619999,-1.21826 18.949701,-1.51834 19.733557,-0.93557 37.940914,-0.73422 57.706563,-0.79823 8.98253,-0.0289 17.965,-0.0739 26.94752,-0.10593 7.48068,-0.0265 14.96177,-0.15163 22.44206,-0.0715 5.61573,0.0602 11.2273,0.32888 16.84095,0.49328 4.389,0.1297 8.7779,0.2627 13.167,0.38903 9.77821,0.28142 12.87387,0.23219 22.23715,0.9234 5.90093,0.43562 11.74247,1.17865 17.5824,2.09933 0.8618,0.17259 1.74882,0.24825 2.58538,0.51786 0.17782,0.057 0.33563,0.61607 0.35844,0.43071 0.18151,-1.47357 1.58189,-4.11127 0.13677,-4.45203 -4.80136,-1.13218 -9.83756,0.77011 -14.76511,1.00264 -13.74217,0.64852 -22.02323,0.56612 -35.77661,0.65976 -20.89406,-0.35249 -41.79281,0.14818 -62.68477,-0.41666 -8.95077,-0.24198 -12.438598,-0.5038 -20.93179,-1.0007 -0.468141,-0.0337 -11.007834,-0.81603 -12.205895,-0.85437 -2.258058,-0.0723 -4.518393,-0.0177 -6.777574,-0.0297 -8.916043,-0.0474 -5.269825,-0.003 -13.772076,-0.18456 0,0 -5.572128,4.0386 -5.572128,4.0386 v 0 c 11.251354,0.0217 22.485646,0.67767 33.738296,0.34895 17.782037,-0.17789 35.565407,-0.32221 53.348337,-0.36454 5.48494,-0.0128 10.97002,0.0362 16.45487,0.002 5.52639,-0.0353 11.0521,-0.1411 16.57816,-0.21162 12.89319,0.008 21.56397,-0.11131 34.36577,0.36936 4.13972,0.1554 8.31625,1.38953 12.40635,0.73181 4.61265,-0.74177 8.83409,-3.05994 13.15281,-4.84188 1.31636,-0.54315 -10.08199,0.839 -4.26268,-0.28237 -19.1421,-0.90732 -38.34228,-1.19312 -57.48692,-0.23877 -6.15367,0.22841 -12.30437,0.56058 -18.46101,0.68514 -4.70211,0.0951 -47.09206,0.24263 -49.49008,0.25034 -18.836126,0.061 -36.924949,0.38004 -55.720345,-0.64475 -4.941954,-0.26945 -9.846698,-1.01224 -14.770048,-1.51835 0,0 -6.321563,4.59288 -6.321563,4.59288 z"
     id="path3377"
     style="fill:#ffffff;fill-opacity:1;stroke:#000000;stroke-width:8.03125;stroke-opacity:1" />
  <path
     style="fill:#ffffff;fill-opacity:1;stroke:#000000;stroke-width:8.03125;stroke-opacity:1"
     id="path3377-0"
     d="m 26.704374,89.965595 c 6.316567,-0.50613 12.619999,-1.21826 18.949701,-1.51834 19.733557,-0.93557 37.940914,-0.73422 57.706565,-0.79823 8.98253,-0.0289 17.965,-0.0739 26.94752,-0.10593 7.48067,-0.0265 14.96177,-0.15163 22.44206,-0.0715 5.61573,0.0602 11.2273,0.32888 16.84095,0.49328 4.389,0.1297 8.7779,0.2627 13.16699,0.38903 9.77822,0.28142 12.87388,0.23219 22.23715,0.9234 5.90094,0.43562 11.74248,1.17865 17.58241,2.09933 0.8618,0.17259 1.74882,0.24825 2.58538,0.51786 0.17781,0.057 0.33562,0.61607 0.35843,0.43071 0.18151,-1.47357 1.58189,-4.11127 0.13678,-4.45203 -4.80137,-1.13218 -9.83756,0.77011 -14.76511,1.00264 -13.74217,0.64852 -22.02323,0.56612 -35.77661,0.65976 -20.89406,-0.35249 -41.79281,0.14817 -62.68477,-0.41666 -8.95077,-0.24198 -12.4386,-0.5038 -20.931791,-1.0007 -0.468142,-0.0337 -11.007834,-0.81603 -12.205895,-0.85437 -2.258059,-0.0723 -4.518394,-0.0177 -6.777575,-0.0297 -8.916043,-0.0474 -5.269825,-0.003 -13.772075,-0.18456 0,0 -5.572128,4.0386 -5.572128,4.0386 v 0 c 11.251354,0.0217 22.485645,0.67767 33.738296,0.34895 17.782038,-0.17789 35.565408,-0.32222 53.348338,-0.36454 5.48493,-0.0128 10.97002,0.0362 16.45487,0.002 5.52639,-0.0353 11.0521,-0.1411 16.57816,-0.21162 12.89319,0.008 21.56397,-0.11132 34.36576,0.36935 4.13973,0.1554 8.31626,1.38953 12.40636,0.73181 4.61265,-0.74177 8.83408,-3.05994 13.15281,-4.84188 1.31636,-0.54315 -10.08199,0.839 -4.26268,-0.28237 -19.1421,-0.90732 -38.34228,-1.19312 -57.48692,-0.23877 -6.15367,0.22841 -12.30437,0.56058 -18.46102,0.68514 -4.7021,0.0951 -47.09205,0.24263 -49.49007,0.25034 -18.836128,0.061 -36.92495,0.38004 -55.720347,-0.64475 -4.941954,-0.26945 -9.846698,-1.01224 -14.770048,-1.51835 0,0 -6.321563,4.59288 -6.321563,4.59288 z" />
  <path
     style="fill:#ffffff;fill-opacity:1;stroke:#000000;stroke-width:8.03125;stroke-opacity:1"
     id="path3377-9"
     d="m 89.778736,28.545865 c 0.50613,6.316567 1.21826,12.619999 1.51834,18.949701 0.93557,19.733557 0.73422,37.940914 0.79823,57.706564 0.0289,8.98253 0.0739,17.965 0.10593,26.94752 0.0265,7.48067 0.15163,14.96177 0.0715,22.44206 -0.0602,5.61573 -0.32888,11.2273 -0.49328,16.84095 -0.1297,4.389 -0.2627,8.7779 -0.38903,13.16699 -0.28142,9.77822 -0.23219,12.87388 -0.9234,22.23715 -0.43562,5.90094 -1.17865,11.74248 -2.09933,17.58241 -0.17259,0.8618 -0.24825,1.74882 -0.51786,2.58538 -0.057,0.17781 -0.61607,0.33562 -0.43071,0.35843 1.47357,0.18151 4.11127,1.58189 4.45203,0.13678 1.13218,-4.80137 -0.77011,-9.83756 -1.00264,-14.76511 -0.64852,-13.74217 -0.56612,-22.02323 -0.65976,-35.77661 0.35249,-20.89406 -0.14817,-41.79281 0.41666,-62.68477 0.24198,-8.95077 0.5038,-12.4386 1.0007,-20.93179 0.0337,-0.468142 0.81603,-11.007834 0.85437,-12.205895 0.0723,-2.258059 0.0177,-4.518394 0.0297,-6.777575 0.0474,-8.916043 0.003,-5.269825 0.18456,-13.772075 0,0 -4.0386,-5.572128 -4.0386,-5.572128 v 0 c -0.0217,11.251354 -0.67767,22.485645 -0.34895,33.738296 0.17789,17.782037 0.32222,35.565407 0.36454,53.348337 0.0128,5.48493 -0.0362,10.97002 -0.002,16.45487 0.0353,5.52639 0.1411,11.0521 0.21162,16.57816 -0.008,12.89319 0.11132,21.56397 -0.36935,34.36576 -0.1554,4.13973 -1.38953,8.31626 -0.73181,12.40636 0.74177,4.61265 3.05994,8.83408 4.84188,13.15281 0.54315,1.31636 -0.839,-10.08199 0.28237,-4.26268 0.90732,-19.1421 1.19312,-38.34228 0.23877,-57.48692 -0.22841,-6.15367 -0.56058,-12.30437 -0.68514,-18.46102 -0.0951,-4.7021 -0.24263,-47.09205 -0.25034,-49.49008 -0.061,-18.836117 -0.38004,-36.924939 0.64475,-55.720336 0.26945,-4.941954 1.01224,-9.846698 1.51835,-14.770048 0,0 -4.59288,-6.321563 -4.59288,-6.321563 z" />
  <path
     d="m 166.05176,28.696594 c 0.50613,6.316567 1.21826,12.619999 1.51834,18.949701 0.93557,19.73356 0.73422,37.94091 0.79823,57.706555 0.0289,8.98253 0.0739,17.965 0.10593,26.94752 0.0265,7.48068 0.15163,14.96177 0.0715,22.44206 -0.0602,5.61573 -0.32888,11.2273 -0.49328,16.84095 -0.1297,4.389 -0.2627,8.7779 -0.38903,13.167 -0.28142,9.77821 -0.23219,12.87387 -0.9234,22.23715 -0.43562,5.90093 -1.17865,11.74247 -2.09933,17.5824 -0.17259,0.86181 -0.24825,1.74882 -0.51786,2.58538 -0.057,0.17782 -0.61607,0.33563 -0.43071,0.35844 1.47357,0.1815 4.11127,1.58189 4.45203,0.13677 1.13218,-4.80137 -0.77011,-9.83757 -1.00264,-14.76512 -0.64851,-13.74216 -0.56612,-22.02322 -0.65976,-35.7766 0.35249,-20.89406 -0.14817,-41.79281 0.41666,-62.68477 0.24198,-8.95077 0.5038,-12.4386 1.0007,-20.931785 0.0337,-0.46814 0.81603,-11.00784 0.85437,-12.2059 0.0723,-2.25806 0.0177,-4.51839 0.0297,-6.77757 0.0474,-8.91605 0.003,-5.26983 0.18456,-13.772079 0,0 -4.0386,-5.572128 -4.0386,-5.572128 v 0 c -0.0217,11.251357 -0.67767,22.485647 -0.34895,33.738297 0.17789,17.782025 0.32222,35.565405 0.36454,53.348335 0.0128,5.48493 -0.0362,10.97002 -0.002,16.45487 0.0353,5.52638 0.1411,11.0521 0.21162,16.57815 -0.008,12.8932 0.11132,21.56398 -0.36935,34.36577 -0.1554,4.13973 -1.38953,8.31626 -0.73181,12.40636 0.74177,4.61265 3.05994,8.83408 4.84188,13.15281 0.54315,1.31636 -0.839,-10.08199 0.28237,-4.26268 0.90732,-19.14211 1.19312,-38.34228 0.23877,-57.48692 -0.22841,-6.15368 -0.56058,-12.30438 -0.68514,-18.46102 -0.0951,-4.7021 -0.24263,-47.09205 -0.25034,-49.49008 -0.061,-18.836115 -0.38004,-36.924935 0.64475,-55.720335 0.26945,-4.941954 1.01224,-9.846698 1.51835,-14.770048 0,0 -4.59288,-6.321563 -4.59288,-6.321563 z"
     id="path3377-9-1"
     style="fill:#ffffff;fill-opacity:1;stroke:#000000;stroke-width:8.03125;stroke-opacity:1" />
</svg>
